<?xml version="1.0" encoding="UTF-8"?>
<svg id="uuid-be4f737a-b389-4389-ad11-ef2aa98ddb15" data-name="图层 1" xmlns="http://www.w3.org/2000/svg" viewBox="0 0 87.48 28">
  <defs>
    <style>
      .uuid-d13c81e0-2891-4650-bded-01201614be13 {
        fill: #fff;
      }

      .uuid-6f974163-c71e-4723-989e-0f5c5b877252 {
        fill: #b40000;
      }
    </style>
  </defs>
  <rect class="uuid-6f974163-c71e-4723-989e-0f5c5b877252" x="0" y="0" width="28" height="28" rx="14" ry="14"/>
  <path class="uuid-d13c81e0-2891-4650-bded-01201614be13" d="M10.43,6.43c2.52-.19,5.05-.37,7.57-.56l2.15-.16c.28-.02,.55-.24,.54-.55-.01-.28-.24-.57-.54-.55-2.52,.19-5.05,.37-7.57,.56l-2.15,.16c-.28,.02-.55,.24-.54,.55,.01,.28,.24,.57,.54,.55Zm-2.61,3.57c.27-.04,.54-.08,.81-.11,.06,0,.13-.02,.19-.03,.63-.08,1.25-.16,1.88-.23,1.03-.12,2.07-.22,3.1-.31,2.1-.18,4.21-.3,6.32-.35,1.11-.03,2.23-.04,3.34-.03,.28,0,.55-.25,.54-.55s-.24-.54-.54-.55c-2.03-.01-4.06,.03-6.08,.14-2.13,.11-4.25,.28-6.37,.52-1.16,.13-2.32,.28-3.47,.45-.28,.04-.46,.42-.38,.67,.1,.31,.36,.43,.66,.38h0Z"/>
  <path class="uuid-d13c81e0-2891-4650-bded-01201614be13" d="M14.63,9.34s.09,.07,.14,.1c0,0,.08,.06,.02,.02,.02,.02,.04,.03,.06,.05,.09,.07,.18,.15,.26,.23,.16,.14,.32,.3,.46,.46,.12,.13,.23,.27,.35,.41,.05,.06-.06-.08-.02-.02,.01,.01,.02,.03,.03,.04,.02,.03,.04,.06,.06,.09,.04,.06,.09,.12,.13,.19,.23,.35,.43,.73,.61,1.12,.04,.08,.08,.17,.11,.25,.02,.05,.04,.1,.06,.14,0,.02,.02,.04,.03,.06,.03,.07-.03-.08,0-.01,.06,.16,.13,.32,.19,.49,.08,.2,.15,.41,.21,.61,.02,.07,.05,.13,.08,.2,0,.01,.01,.03,.02,.04,.04,.1-.06-.15,0-.02,.26,.63,.49,1.27,.68,1.93,.12,.4,.24,.81,.32,1.22,.07,.36,.13,.73,.19,1.1,.01,.09,.03,.18,.04,.27,0,.03,0,.07,.01,.1,.01,.09-.02-.14,0,0,.02,.16,.03,.32,.04,.48,0,.11,0,.23,0,.34,0,.06,0,.11-.01,.17,0,.03,0,.06,0,.08,0-.06,0-.02,0,.01-.03,.2-.08,.39-.14,.58-.03,.08-.06,.17-.08,.25-.02,.05-.03,.09-.05,.14,0,.02-.06,.16-.03,.09,.03-.08-.03,.05-.04,.07-.02,.03-.04,.07-.06,.1-.02,.04-.05,.07-.07,.11-.02,.02-.07,.07,0,0-.02,.02-.04,.04-.05,.06-.13,.14-.27,.27-.42,.39-.05,.04-.09,.07-.14,.11-.02,.02-.04,.03-.06,.05,0,0-.07,.06-.03,.02s-.02,.02-.03,.02c-.02,.01-.04,.03-.06,.04-.05,.04-.11,.08-.17,.12-.25,.17-.51,.31-.79,.43,.08-.03-.04,.01-.06,.02-.11,.04-.22,.08-.34,.12-.26,.09-.52,.16-.78,.22-.23,.06-.47,.11-.7,.15-.15,.03-.29,.05-.44,.08-.08,.01-.16,.02-.23,.04l-.11,.02s-.04,0-.06,0c.04,0,.1-.01,.03,0-.86,.11-1.73,.16-2.6,.17-.44,0-.88,0-1.31,0-.18,0-.36-.02-.53-.03-.04,0-.07,0-.11-.01-.02,0-.04,0-.06,0-.06,0,.05,0,.05,0-.04,.02-.21-.03-.25-.04-.36-.07-.72-.18-1.07-.3-.09-.03-.19-.06-.28-.1-.04-.02-.08-.03-.13-.05,.1,.04-.02-.01-.06-.03-.18-.09-.36-.19-.52-.32,.07,.06-.01-.01-.04-.03-.04-.03-.07-.06-.11-.1-.08-.08-.16-.17-.23-.26,.05,.06-.04-.06-.05-.08-.03-.04-.05-.09-.08-.13s-.05-.09-.07-.13c-.01-.02-.02-.04-.03-.07,0,0-.06-.13-.03-.07,.02,.05-.03-.07-.03-.09-.02-.04-.03-.09-.04-.13-.03-.1-.06-.2-.08-.3-.02-.08-.06-.18-.05-.26,0,0,.01,.11,0,.05,0-.02,0-.04,0-.06,0-.05,0-.1-.01-.15-.02-.25-.03-.5-.02-.75,0-.08,0-.15,.01-.23,0-.05,0-.09,.01-.14,0-.01,.01-.08,0,0-.01,.08,0-.02,0-.03,.03-.2,.08-.39,.15-.58,0-.03,.06-.17,.03-.08,.02-.05,.04-.09,.07-.14,.06-.11,.12-.22,.19-.33,.01-.02,.09-.13,.04-.06,.03-.04,.06-.08,.09-.12,.07-.08,.15-.16,.23-.24,.04-.04,.08-.07,.12-.1,.05-.04-.01,.01-.02,.02,.02-.01,.04-.03,.05-.04,.08-.06,.17-.12,.26-.17,.16-.1,.33-.19,.5-.29,.09-.05,.18-.09,.27-.14,.04-.02,.08-.04,.12-.06-.1,.05,.04-.01,.08-.03,.19-.08,.39-.14,.59-.21,.41-.14,.82-.27,1.24-.37,.23-.05,.47-.09,.71-.13,.1-.02,.21-.04,.31-.05,.04,0,.09-.01,.13-.02-.13,.02,.03,0,.06,0,.15-.02,.31-.03,.47-.02,.04,0,.07,0,.11,0s-.13-.03-.03,0c.06,.01,.13,.04,.19,.05,.05,.01-.07-.03-.07-.03,0,0,.03,.01,.04,.02,.03,.02,.06,.03,.08,.05,.09,.05-.01,.02-.02-.02,0,.02,.07,.06,.08,.08,.02,.02,.08,.07,.09,.1,0,0-.06-.09-.03-.04,0,.02,.02,.03,.03,.05,.02,.03,.04,.06,.05,.1,0,.02,.01,.03,.02,.05,.03,.06-.04-.11,0-.01,.02,.07,.05,.14,.06,.21,0,.04,.02,.08,.03,.12,0,.02,0,.04,0,.05,.02,.09-.01-.03,0-.04-.02,.02,.02,.19,.02,.23,0,.08,0,.15,0,.23,0,.12-.02,.23-.03,.35,0,.04,.02-.16,0-.06,0,.02,0,.04,0,.06,0,.02,0,.05-.01,.07-.02,.11-.05,.22-.08,.32-.01,.03-.02,.07-.03,.1,0,.03-.06,.14-.03,.08,.04-.07-.02,.04-.03,.06-.02,.04-.05,.09-.07,.13-.03,.04-.06,.09-.09,.13-.03,.05,0-.01,.01-.02-.02,.02-.03,.04-.05,.05-.03,.04-.07,.07-.1,.11-.02,.02-.05,.05-.08,.07-.06,.06,.05-.04-.01,.01-.09,.06-.18,.11-.27,.16,.08-.04,0,0-.04,.01-.05,.02-.09,.03-.14,.04-.04,.01-.09,.02-.14,.03-.02,0-.04,0-.06,0-.06,.01,.05,0,.05,0-.03-.02-.19,.02-.22,.02-.06,0-.12,0-.18,0s-.12,0-.18,0c-.03,0-.05,0-.08,0,.05,0,.05,0,0,0-.1-.02-.19-.04-.29-.07-.04-.01-.08-.03-.12-.04,0,0-.05-.02-.06-.02,.01-.01,.1,.04,.02,.01-.12-.06-.23-.12-.34-.19-.24-.15-.6-.06-.74,.2-.14,.27-.06,.58,.19,.75,.69,.44,1.54,.58,2.34,.41,.94-.21,1.6-1.01,1.81-1.93,.13-.55,.15-1.15,.02-1.7-.09-.39-.29-.78-.59-1.03-.31-.25-.66-.37-1.06-.38-.41-.02-.83,.06-1.24,.13-.49,.08-.97,.18-1.44,.33-.86,.27-1.7,.57-2.45,1.07-.85,.56-1.43,1.42-1.6,2.45-.11,.7-.1,1.44,.05,2.14,.21,.98,.83,1.85,1.72,2.31,.41,.21,.84,.35,1.28,.48,.38,.11,.76,.19,1.15,.24,.89,.11,1.82,.07,2.72,.03,.86-.03,1.73-.12,2.58-.26,.5-.08,1-.19,1.48-.33,.49-.14,.98-.32,1.43-.57,.45-.25,.87-.57,1.26-.91,.69-.6,.98-1.56,1.08-2.45,.09-.84-.12-1.72-.26-2.54-.14-.83-.4-1.64-.68-2.44-.11-.3-.22-.61-.34-.9-.04-.11-.09-.21-.13-.32-.05-.11,.07,.19,.03,.06-.19-.62-.43-1.22-.71-1.81-.36-.77-.8-1.48-1.37-2.1-.35-.37-.73-.7-1.14-.99-.23-.17-.61-.05-.74,.2-.15,.28-.05,.57,.19,.75h0Z"/>
  <g>
    <path d="M40.46,12.38c.15,0,.3,.03,.46,.09,.1,.03,.18,.04,.25,.04h.22c.07,0,.11,0,.13,.01,.02,0,.03,.03,.05,.08,.1,.15,.32,.38,.64,.7,.08,.09,.11,.17,.11,.26,0,.04-.02,.13-.06,.26-.04,.04-.06,.09-.06,.15,0,.13,0,.23,0,.31,0,.07,0,.1,0,.09-.03,0-.04-.02-.04-.07,0-.03-.01-.04-.04-.03-.03,0-.05,.02-.08,.03s-.08,.03-.17,.03c-.09,0-.2,0-.32-.01l-.66,.02-.47,.09-.4,.04c-.08,0-.13,.01-.15,.04,0,.01,0,.02,0,.02,0,0-.01,0-.01-.02,0-.13-.18,.04-.55,.5-.15,.2-.24,.31-.27,.33l-.27,.37c-.21,.28-.43,.53-.64,.76-.45,.54-.74,.9-.85,1.07l-.23,.26c-.05,.03-.1,.07-.15,.13,0,.02,.24,.02,.72,.02,.56,0,.92,0,1.1-.02,.37,0,.65,.02,.85,.04l.85,.07c.2,0,.38,.02,.53,.04,.14,.02,.31,.07,.5,.18,.2,.1,.36,.22,.48,.35,.28,.32,.42,.51,.42,.57l.08,.22c.06,.15,.09,.27,.09,.37,.03,.12,.05,.21,.08,.28,.05,.09,.07,.21,.06,.37,0,.09-.02,.15-.06,.18-.04,.04-.09,.04-.15,.01-.01-.01-.03-.02-.06-.02-.06,0-.14,.03-.23,.09l-.21,.11h-.02s-.08,.01-.11,.04-.07,.06-.09,.09c-.04,.04-.1,.08-.19,.11-.11,.04-.19,.08-.23,.11-.06,.04-.16,.07-.3,.07s-.26,.02-.36,.04l-.27,.07c-.05,0-.11,.02-.19,.07-.03,.01-.06,.02-.11,.02-.04-.03-.13-.03-.27,0l-.57,.09c-.48,.06-.87,.17-1.17,.33-.16,.07-.27,.11-.32,.11h-.04c-.06,0-.15,.02-.25,.07-.15,.06-.23,.07-.23,.04l-.02-.02s.14-.11,.42-.28c.21-.13,.39-.25,.54-.35s.29-.22,.44-.35c.15-.12,.33-.28,.53-.49,.2-.21,.3-.33,.3-.36-.02-.01-.04-.02-.06-.02-.08,0-.46,.07-1.15,.22-.14,.04-.3,.08-.48,.1-.18,.02-.31,.02-.37,.01-.08,0-.35,.12-.81,.37-.15,.09-.25,.13-.3,.13-.11,.04-.2,.09-.27,.13-.21,.1-.4,.18-.57,.22-.25,.1-.4,.13-.44,.09-.03-.03-.06-.04-.11-.04s-.1,.02-.15,.05c-.05,.04-.08,.08-.08,.12,0,.03-.05,.07-.15,.11-.1,.04-.19,.07-.27,.07s-.12-.03-.13-.09l-.06-.13s-.11-.03-.27-.09c-.08-.01-.16-.05-.27-.11l-.15-.11c-.13-.06-.2-.26-.21-.61-.01-.25-.04-.47-.08-.66-.01-.06,0-.14,.04-.24s.1-.24,.19-.41c.27-.57,.57-1.1,.93-1.59,.19-.23,.43-.52,.72-.86,.29-.34,.57-.66,.85-.95,.14-.13,.21-.22,.21-.26h-.02c-.05,.01-.12,.04-.22,.09-.09,.04-.19,.1-.28,.17-.11,.09-.26,.18-.43,.28-.18,.1-.28,.15-.3,.15s-.06,.03-.11,.09c-.05,.04-.1,.07-.15,.07-.06,0-.14,.05-.23,.15-.13,.09-.2,.13-.23,.13s-.16,.07-.42,.22c-.01,0-.03,.01-.04,.03-.01,.02-.01,.04,0,.05,0,.04-.09,.09-.28,.15-.19,.07-.3,.12-.32,.15-.06,.06-.24,.12-.54,.18s-.55,.09-.75,.09c-.11,0-.2-.01-.25-.04-.06-.03-.19-.06-.38-.09l-.38-.11c-.05-.04-.11-.07-.17-.07-.1,0-.23-.07-.38-.21-.15-.14-.29-.31-.42-.51-.08-.15-.15-.3-.23-.47-.08-.17-.11-.26-.09-.27,0-.05,0-.08-.02-.11-.05-.1-.08-.25-.09-.44-.05-.26-.06-.43-.02-.5,.05-.13,.11-.22,.18-.26,.07-.04,.12-.03,.14,.04,.01,.06,.03,.08,.06,.07,.03-.01,.05-.06,.08-.13,.01-.04,.02-.07,.03-.08,0,0,0,0,0,.03,0,.07,.02,.13,.06,.17,.04,.01,.07,.06,.09,.13,.01,.04,.09,.11,.25,.21,.15,.1,.26,.15,.32,.16h.06c.11,0,.23-.02,.34-.07,.16-.04,.45-.07,.87-.07,.2,0,.37,0,.51-.02,.14-.01,.28-.04,.42-.09,.38-.1,.67-.19,.88-.27s.47-.19,.79-.34c.35-.16,1.09-.46,2.22-.88,1.12-.43,1.84-.7,2.16-.8,.42-.12,.86-.2,1.34-.24l.38-.02Zm-5.49-4.59c.11,.06,.21,.15,.3,.28,.08,.1,.2,.2,.38,.28l.3,.11h1.04l1.04-.02,.11,.15c.05,.09,.16,.17,.32,.26,.14,.07,.29,.21,.45,.42,.1,.1,.17,.19,.22,.26s.07,.16,.09,.26c.01,.15,0,.24-.02,.28-.03,.03-.04,.14-.04,.33-.01,.17-.03,.3-.07,.37-.03,.07-.09,.12-.16,.13-.08,.03-.11,.05-.11,.07,0,.03-.07,.1-.22,.21-.14,.11-.23,.16-.26,.16-.01,0-.02,0-.04-.02-.01-.01-.02-.04-.02-.07,0-.07-.02-.09-.06-.07-.16,.06-.25,.1-.27,.13-.04,.04-.11,.08-.21,.11-.16,.07-.25,.12-.27,.13-.08,.03-.14,.06-.2,.08-.06,.02-.12,.05-.18,.08-.1,.03-.19,.07-.27,.11-.09,.07-.16,.12-.21,.13l-.19,.13c-.05,.06-.13,.09-.23,.09l-.17,.07s-.06,.02-.11,.02h-.02c-.05,0-.13,.03-.23,.09-.16,.1-.35,.17-.57,.2-.43,.07-.87,.15-1.31,.24l-.34,.11c-.16,.03-.25,.05-.25,.07-.04,.01-.1,.01-.17,0l-.11-.02,.17-.09,.62-.37,.4-.24c.13-.07,.25-.16,.38-.25,.13-.09,.23-.19,.3-.27l.34-.35c.1-.09,.3-.3,.59-.62s.44-.51,.44-.54-.02-.04-.06-.04-.13-.06-.27-.19c-.14-.12-.27-.24-.38-.36-.1-.15-.18-.3-.25-.46-.04-.16-.07-.25-.09-.26-.03-.03-.08-.28-.15-.74-.03-.17-.04-.28-.06-.31-.01-.04,0-.07,.02-.07Z"/>
    <path d="M53.75,11.97s.05,.01,.08,.09c.02,.07,.06,.11,.09,.11l.19,.07c.11,.07,.2,.09,.27,.07,.06,0,.11,.01,.15,.04s.08,.08,.13,.15c.11,.16,.18,.28,.21,.35,.01,.03,.03,.07,.05,.11,.02,.04,.03,.09,.05,.15l.08,.28c0,.1,.03,.24,.08,.41,.05,.13,.08,.54,.08,1.22s-.03,1.11-.08,1.29c-.04,.17-.06,.33-.08,.47-.01,.14-.01,.2,0,.19,.03-.01,.17-.2,.44-.56s.44-.6,.51-.73l.85-1.4s.04-.04,.06-.03c.01,0,.03,.03,.06,.08,.03,.07,.03,.15,.02,.22l-.06,.33c0,.16-.03,.29-.09,.39-.05,.15-.08,.25-.08,.31,.03,.21-.04,.44-.19,.7-.09,.15-.13,.26-.13,.35,0,.13-.05,.25-.15,.37-.05,.06-.08,.1-.08,.13,0,.04-.03,.12-.08,.24l-.08,.2s-.01,.07-.04,.07c-.01,0-.03,.02-.06,.07-.05,.1-.11,.21-.19,.33l-.15,.31c-.01,.06-.04,.14-.09,.25-.05,.11-.11,.21-.17,.32-.04,.06-.06,.12-.07,.19,0,.07,0,.11,.03,.14,.02,.02,.04,.04,.04,.07,0,.07-.03,.15-.09,.22l-.08,.17c-.01,.06-.14,.25-.4,.57s-.42,.51-.51,.57l-.17,.13-.11-.15c-.08-.1-.14-.15-.21-.15s-.16-.04-.28-.12c-.12-.08-.18-.15-.18-.21-.01-.07-.05-.18-.1-.33-.06-.14-.12-.31-.2-.48-.03-.09-.04-.17-.04-.26,0-.26,.07-.63,.21-1.11,.06-.19,.11-.38,.15-.57l.13-.5c.05-.2,.11-.45,.18-.74,.07-.29,.12-.55,.16-.76,.03-.23,.06-.43,.1-.59,.05-.22,.08-.68,.08-1.4,0-.31,0-.49-.02-.55l-.11-.48c-.03-.09-.06-.23-.11-.44-.01-.07,0-.12,.02-.13Zm.11-4.68s.01-.04,.04-.04l.15,.07c.08,.04,.26,.07,.55,.07,.25,0,.43,.02,.55,.07s.27,.15,.47,.33c.13,.12,.26,.26,.4,.44s.21,.28,.21,.33c0,.12,.06,.25,.19,.39,.04,.07,.07,.19,.09,.35,0,.12,.02,.24,.06,.37,.01,.01,.02,.04,.02,.07,0,.06-.05,.15-.15,.26-.16,.22-.25,.27-.25,.15,0-.04-.01-.07-.04-.07-.05,0-.11,.04-.19,.13-.05,.07-.1,.12-.13,.13-.04,.01-.11,.03-.21,.04-.15,0-.28,.04-.4,.13-.1,.07-.17,.11-.21,.11l-.19-.04c-.13-.01-.24-.07-.34-.15l-.09-.11,.11-.24c.06-.13,.13-.36,.19-.7,.06-.33,.09-.57,.09-.72,0-.06-.03-.13-.08-.22-.05-.09-.12-.2-.21-.33-.2-.23-.33-.36-.4-.37-.08-.03-.14-.12-.19-.26-.04-.09-.06-.15-.06-.17Zm8.37,6.45c.4,0,.68,.02,.83,.07,.14,.03,.29,.12,.45,.28s.28,.33,.34,.5c.1,.19,.18,.31,.23,.35,.25,.32,.43,.58,.53,.77,.05,.12,.08,.27,.08,.46,0,.13-.01,.26-.04,.38-.03,.12-.06,.22-.09,.27-.08,.07-.13,.24-.17,.5-.03,.1-.06,.19-.11,.26-.01,.03-.03,.07-.06,.12-.03,.05-.05,.11-.08,.19-.01,.06-.09,.18-.23,.37-.13,.13-.2,.22-.23,.26-.03,.01-.05,.04-.09,.08s-.07,.08-.12,.12c-.29,.28-.44,.53-.44,.77,0,.12,.01,.21,.04,.28l.02,.04s-.04,.09-.11,.13l-.23,.17c-.06,.07-.13,.09-.19,.07-.44-.12-.81-.17-1.12-.17-.11,0-.23,.01-.36,.04-.23,.06-.39,.11-.5,.14-.11,.04-.17,.08-.2,.12-.03,.07-.08,.11-.15,.11-.29,0-.55-.04-.78-.11-.23-.07-.36-.16-.4-.26-.05-.09-.13-.19-.24-.3s-.2-.19-.27-.23c-.08-.03-.17-.11-.28-.24-.11-.13-.2-.26-.27-.39-.06-.1-.13-.25-.19-.46l-.15-.46c-.04-.07-.06-.13-.06-.18l-.06-.26c-.04-.17-.06-.47-.06-.9l-.02-.52c0-.19,.02-.37,.06-.55,.05-.26,.14-.52,.26-.76,.12-.25,.22-.37,.29-.37,.04,0,.06,.06,.06,.17,0,.1,.03,.19,.08,.25,.05,.07,.11,.1,.17,.1,.05,0,.1-.02,.15-.07l.44-.13c.28-.06,.58-.15,.91-.28,.53-.22,1.19-.46,1.99-.72,.04-.01,.16-.02,.36-.02Zm.31,.91s-.05-.03-.1-.03c-.25,.01-.52,.07-.81,.17-.29,.1-.49,.21-.59,.33-.06,.07-.23,.2-.51,.37-.08,.04-.2,.09-.37,.13s-.32,.07-.46,.07h-.13c-.14,0-.3-.04-.49-.11-.2-.07-.32-.13-.36-.17-.01-.01-.07-.02-.17-.02-.08,0-.15-.01-.23-.04l-.08-.02s-.04,.02-.04,.07c0,.06,0,.13,.03,.21,.02,.08,.03,.16,.05,.25l.13,.61,.06,.31c.01,.2,.13,.48,.34,.83l.32,.57c.08,.16,.13,.25,.16,.28,.03,.03,.08,.04,.14,.04,.08,0,.21-.04,.42-.13,.23-.1,.4-.16,.53-.17,.19-.03,.31-.07,.36-.11,.06-.06,.15-.07,.25-.04h.08c.06,0,.13-.03,.19-.09,.21-.22,.47-.52,.78-.92,.04-.06,.19-.26,.45-.61,.25-.34,.38-.59,.38-.77,0-.13-.04-.28-.11-.46-.09-.26-.14-.41-.15-.44-.01-.04-.03-.08-.05-.1Zm-2.94-8.93c.11,0,.22,.01,.32,.04l.32,.07c.15,.03,.26,.07,.33,.13,.07,.06,.15,.17,.24,.35,.06,.12,.1,.2,.11,.26,.01,.06,.02,.19,.04,.39,0,.1,.02,.37,.06,.81s.06,.74,.06,.9c0,.34,.01,.5,.04,.5s.14-.07,.33-.22c.2-.15,.31-.24,.33-.28,.05-.06,.09-.09,.13-.11,.05-.06,.08-.1,.08-.13-.01-.09,.11-.13,.36-.13,.09,0,.21,.01,.36,.04,.16,.06,.27,.07,.3,.04h.04c.1,0,.2,.06,.29,.17,.09,.12,.12,.2,.07,.26-.04,.01-.03,.07,.02,.15,.04,.06,.06,.12,.06,.17s-.02,.12-.06,.2c-.04,.07-.07,.11-.09,.11s-.08,.04-.15,.13c-.08,.07-.26,.21-.54,.41-.28,.2-.56,.39-.82,.57-.23,.13-.35,.15-.36,.04-.03-.06-.06-.09-.11-.09-.02,0-.04,.02-.06,.05-.01,.04-.02,.1-.02,.19,0,.22-.04,.48-.12,.8-.08,.31-.19,.59-.31,.84-.08,.17-.11,.28-.11,.33,0,.06-.01,.1-.04,.13-.04,.01-.08,.1-.13,.26-.04,.13-.09,.22-.17,.26-.08,.03-.25,.15-.51,.37-.18,.12-.27,.2-.27,.24-.03,.06-.08,.11-.16,.15-.08,.04-.16,.06-.24,.04h-.08c-.05,0-.13,.01-.23,.04-.05,.03-.11,.04-.19,.04-.06,0-.12,0-.17-.02l-.23-.04,.23-.24c.18-.17,.32-.38,.42-.62,.1-.24,.21-.64,.34-1.19l.17-.72c.1-.38,.15-.79,.15-1.25,0-.29,.02-.57,.06-.83,.04-.33,.06-.72,.06-1.16s-.02-.84-.06-1.16c-.04-.38-.08-.61-.11-.69-.04-.08-.12-.11-.25-.1-.04,0-.08-.05-.11-.15-.01-.1-.06-.18-.13-.24l-.09-.09,.19-.02c.2-.03,.35-.04,.44-.04Z"/>
    <path d="M81.81,8.06l.23,.04c.09,0,.2,.04,.32,.13,.14,.09,.23,.2,.28,.33,.06,.15,.13,.28,.21,.39l.09,.15-.11,.24c-.09,.19-.17,.31-.24,.37-.07,.06-.21,.1-.43,.13l-.36,.04-.45,.35c-.1,.07-.2,.15-.3,.22-.1,.07-.18,.13-.25,.17l-.32,.33-.28,.33-.15,.22-.64,.83s-.09,.11-.17,.24c-.04,.04-.11,.15-.23,.33-.06,.09-.1,.16-.1,.21,0,.05,0,.12,.03,.21,.04,.07,.09,.11,.17,.11l.46,.11c.21,.04,.43,.08,.64,.12s.39,.05,.53,.05c.18,0,.48-.21,.91-.63-.01,0,.14-.15,.47-.46,.38-.35,.71-.72,.99-1.13,.28-.4,.43-.68,.43-.84,0-.07-.04-.15-.13-.22-.06-.07-.11-.16-.15-.26s-.03-.15,.02-.15c.01,0,.04-.02,.08-.07,.05-.06,.1-.07,.15-.04l.34,.07c.15,.01,.27,.07,.36,.15l.19,.13c.06,.01,.15,.15,.27,.41,.19,.39,.28,.78,.28,1.16s-.11,.71-.32,.96c-.09,.09-.22,.18-.4,.28s-.33,.16-.46,.17c-.14,.03-.22,.06-.25,.09-.11,.07-.28,.17-.49,.3-.22,.12-.34,.19-.38,.19-.05,0-.16,.04-.33,.13-.17,.09-.25,.15-.25,.17,.06,.04,.19,.12,.39,.23,.2,.11,.42,.22,.67,.34l.59,.31c.1,.06,.34,.16,.72,.31,.42,.15,.67,.25,.76,.33l.59,.31c.15,.09,.31,.2,.48,.33s.31,.25,.43,.37c.32,.37,.52,.65,.61,.85,.05,.15,.09,.34,.13,.57,.04,.23,.06,.46,.06,.68,0,.12,0,.21,0,.27,0,.07-.03,.13-.09,.19-.08,.12-.11,.22-.11,.31-.02,.16-.05,.29-.09,.39-.03,.1-.06,.15-.09,.15-.05,0-.11-.05-.19-.15s-.14-.22-.21-.35c-.08-.19-.15-.33-.23-.43-.08-.09-.24-.24-.49-.45-.29-.26-.59-.5-.89-.7s-.5-.31-.59-.31c-.05,0-.14-.04-.28-.12-.14-.08-.24-.15-.3-.21l-.4-.28c-.13-.07-.25-.15-.36-.24-.04-.04-.1-.08-.19-.11-.18-.1-.28-.17-.32-.2l-.21-.13c-.14-.06-.37-.18-.69-.37-.32-.19-.63-.37-.94-.55l-.7-.41-.32-.17-.32,.09c-.16,.04-.31,.09-.43,.15-.12,.06-.19,.1-.22,.13-.01,.01-.05,.15-.1,.39l-.13,.59c-.1,.35-.15,.64-.15,.87-.03,.21-.04,.42-.04,.63-.01,.2,0,.53,0,.97,.02,.44,.04,.68,.07,.71,.04,.04,.27-.09,.68-.39l.63-.39c.28-.16,.54-.34,.79-.55,.25-.2,.4-.37,.46-.5,.05-.09,.12-.19,.22-.31s.15-.17,.16-.15c.01,0,0,.08-.06,.24-.03,.09-.04,.15-.05,.2,0,.04,0,.09,.01,.13,.01,.02,.02,.04,.02,.09,0,.03-.04,.12-.11,.28-.05,.12-.09,.22-.1,.32-.02,.09-.03,.21-.03,.36s0,.25,0,.33c0,.07-.03,.14-.09,.2-.14,.16-.29,.43-.45,.81-.13,.29-.3,.58-.53,.85-.23,.28-.45,.5-.66,.66-.2,.12-.4,.2-.61,.26l-.44,.09c-.08,0-.14,.03-.21,.09-.08,.04-.19,.07-.34,.07-.08,0-.14-.01-.18-.04-.04-.03-.09-.07-.12-.11-.06-.09-.11-.18-.13-.28-.08-.55-.13-1.03-.15-1.42l-.06-.61c-.01-.12-.02-.43-.02-.94s0-.77,.02-.83l.06-.48c0-.2,.01-.41,.04-.61,.01-.2,.04-.46,.09-.77,.05-.31,.1-.53,.15-.68l.04-.26s0-.04-.02-.04c-.03,0-.14,.13-.36,.39-.27,.31-.48,.55-.65,.74-.17,.19-.31,.31-.41,.35-.2,.15-.32,.23-.36,.26-.11,.1-.18,.15-.21,.15s-.06,.02-.1,.07c-.05,.06-.13,.12-.23,.17-.39,.28-.73,.42-1.02,.42-.11,0-.22-.02-.32-.07-.13-.06-.21-.12-.26-.2-.04-.07-.07-.17-.07-.28,0-.15,0-.22,.02-.22h.02l.15,.02s.09,.02,.15,.02c.05,0,.14-.03,.28-.09l.4-.2,.15-.11s.13-.08,.3-.23,.35-.32,.53-.51c.27-.28,.69-.82,1.29-1.64,.59-.82,.98-1.38,1.16-1.7,.27-.51,.39-.77,.38-.79l-.27,.07c-.28,.09-.51,.13-.7,.13-.14,0-.24-.01-.3-.04-.18-.04-.3-.09-.38-.13s-.18-.14-.3-.28c-.11-.12-.18-.2-.21-.25s-.04-.13-.04-.23c-.01-.09-.02-.2-.02-.35l-.04-.41c-.01-.07-.02-.17-.02-.28,0-.28,.06-.5,.19-.66,.05-.06,.08-.09,.09-.09,.05,0,.08,.09,.09,.26,.06,.22,.12,.36,.17,.44l.11,.22,.34-.04c.34-.03,.61-.09,.81-.17,.1-.06,.23-.12,.38-.17l.44-.17c.25-.13,.57-.27,.95-.41,.38-.15,.69-.25,.93-.33,.14-.03,.23-.06,.28-.09,.05-.03,.13-.1,.23-.22,.13-.12,.21-.19,.27-.22s.13-.05,.25-.07h.23Zm-1.7-2.97c.05,0,.2,.07,.45,.22,.21,.13,.4,.28,.55,.46,.54,.63,.81,1.13,.81,1.51,0,.15-.01,.24-.03,.3-.02,.05-.08,.12-.18,.21-.09,.07-.19,.12-.3,.15-.11,.03-.27,.05-.47,.07-.18,0-.3,.02-.36,.07-.19,.07-.42,.12-.68,.15-.18,.03-.27,.05-.28,.07-.11,.04-.27,.07-.47,.07l-.3,.02c-.09,0-.14-.01-.17-.04l-.09-.07,.13-.11,.23-.22,.25-.24c.16-.13,.4-.39,.71-.78s.47-.63,.48-.73v-.04c0-.12-.05-.24-.15-.37-.08-.12-.11-.21-.11-.28,0-.09-.01-.13-.04-.13-.01-.01-.02-.07-.02-.15,0-.07,.02-.11,.06-.11Zm-1,9.4s-.05,.04-.08,.13c-.02,.09-.02,.15,0,.17h.02s.09-.02,.17-.07c.08-.04,.11-.08,.11-.11,0-.04-.03-.08-.09-.11-.04-.01-.08-.02-.13-.02Z"/>
  </g>
</svg>